<svg xmlns="http://www.w3.org/2000/svg" viewBox="0 0 197 173"><defs><style>.cls-1{fill:#422611;opacity:0.79;}.cls-2{fill:#8cad76;}</style></defs><title>Asset 16</title><g id="Layer_2" data-name="Layer 2"><g id="Layer_1-2" data-name="Layer 1"><polygon class="cls-1" points="197.33 128.12 197 128.02 197 127.79 196.19 127.79 179 122.79 131 124.79 102 115.79 0 127.79 0 139.79 0 196.79 197 196.79 197 139.79 197 128.12 197.33 128.12"/><polygon class="cls-2" points="131 124.79 179 122.79 196.19 127.79 197 127.79 197 0 187.62 61.79 173.03 39.79 159.48 60.79 159.48 14.79 135.5 62.79 121.95 38.79 117.78 60.79 99.02 30.79 74 68.79 64.62 30.79 66.71 67.79 35.44 23.79 39.61 64.79 29.18 42.79 12.51 81.79 6.25 56.79 1.04 86.79 0 127.79 102 115.79 131 124.79"/></g></g></svg>