<svg xmlns="http://www.w3.org/2000/svg" viewBox="0 0 197 173"><defs><style>.cls-1{fill:#89623f;opacity:0.79;}.cls-2{fill:#8cad76;}</style></defs><title>Asset 15</title><g id="Layer_2" data-name="Layer 2"><g id="Layer_1-2" data-name="Layer 1"><path class="cls-1" d="M151.06,92l-89.83,9s-25.52-1-27.56-2S1,104,1,104H0v69H197V104Z"/><path class="cls-2" d="M33.67,99c2,1,27.56,2,27.56,2l89.83-9L197,104V63l-5.1-11L196,23s-26.54,17-25.52,10S160.25,6,160.25,6l-3.06,35-3.06-6L131.67,60V0L106.16,31,95.95,41,86.76,28,78.6,55,54.1,25,38.79,55,34.7,41,17.35,52,0,6v98H1S31.63,98,33.67,99Z"/></g></g></svg>