<svg xmlns="http://www.w3.org/2000/svg" viewBox="0 0 113.58 113"><defs><style>.cls-1{fill:#f2c538;}</style></defs><title>Asset 17</title><g id="Layer_2" data-name="Layer 2"><g id="Layer_1-2" data-name="Layer 1"><rect class="cls-1" x="28" y="28" width="57" height="57" rx="12" ry="12"/><polygon class="cls-1" points="51 19 57 0 57 22 51 19"/><polygon class="cls-1" points="63 19 57 0 57 22 63 19"/><polygon class="cls-1" points="20.09 27.87 10.9 10.2 26.46 25.75 20.09 27.87"/><polygon class="cls-1" points="28.58 19.39 10.9 10.2 26.46 25.75 28.58 19.39"/><polygon class="cls-1" points="19 62 0 56 22 56 19 62"/><polygon class="cls-1" points="19 50 0 56 22 56 19 50"/><polygon class="cls-1" points="27.87 92.91 10.2 102.1 25.75 86.54 27.87 92.91"/><polygon class="cls-1" points="19.39 84.42 10.2 102.1 25.75 86.54 19.39 84.42"/><polygon class="cls-1" points="63 94 57 113 57 91 63 94"/><polygon class="cls-1" points="51 94 57 113 57 91 51 94"/><polygon class="cls-1" points="93.48 27.87 102.68 10.2 87.12 25.75 93.48 27.87"/><polygon class="cls-1" points="85 19.39 102.68 10.2 87.12 25.75 85 19.39"/><polygon class="cls-1" points="94.58 62 113.58 56 91.58 56 94.58 62"/><polygon class="cls-1" points="94.58 50 113.58 56 91.58 56 94.58 50"/><polygon class="cls-1" points="85.71 92.91 103.39 102.1 87.83 86.54 85.71 92.91"/><polygon class="cls-1" points="94.19 84.42 103.39 102.1 87.83 86.54 94.19 84.42"/></g></g></svg>