<svg xmlns="http://www.w3.org/2000/svg" viewBox="0 0 197 170"><defs><style>.cls-1{fill:#89623f;opacity:0.79;}.cls-2{fill:#8cad76;}</style></defs><title>soil_2</title><g id="Layer_2" data-name="Layer 2"><g id="Layer_1-2" data-name="Layer 1"><path class="cls-1" d="M151.06,89,61.23,98s-25.52-1-27.56-2S1,101,1,101H0v69H197V101Z"/><path class="cls-2" d="M33.67,96c2,1,27.56,2,27.56,2l89.83-9L197,101V60l-5.1-11L196,20s-26.54,17-25.52,10S160.25,3,160.25,3l-3.06,35-3.06-6L131.67,57,132,0,106.16,28,95.95,38,86.76,25,78.6,52,54.1,22,38.79,52,34.7,38,17.35,49,0,3v98H1S31.63,95,33.67,96Z"/></g></g></svg>