<svg xmlns="http://www.w3.org/2000/svg" viewBox="0 0 197.33 170"><defs><style>.cls-1{fill:#422611;opacity:0.79;}.cls-2{fill:#8cad76;}</style></defs><title>soil_3</title><g id="Layer_2" data-name="Layer 2"><g id="Layer_1-2" data-name="Layer 1"><polygon class="cls-1" points="197.33 101.33 197 101.24 197 101 196.19 101 179 96 131 98 102 89 0 101 0 113 0 170 197 170 197 113 197 101.33 197.33 101.33"/><polygon class="cls-2" points="131 98 179 96 196.19 101 197 101 197 0 187.62 35 173.03 13 159.48 34 154 0 135.5 36 121.95 12 117.78 34 99.02 4 74 42 64.62 4 66.71 41 37 0 39.61 38 29.18 16 12.51 55 6.25 30 1.04 60 0 101 102 89 131 98"/></g></g></svg>